<?xml version="1.0" encoding="utf-8"?>
<svg version="1.1" xmlns:xlink="http://www.w3.org/1999/xlink" width="10px" height="17px" xmlns="http://www.w3.org/2000/svg">
  <g transform="matrix(1 0 0 1 -646 -99 )">
    <path d="M 9.82817869415808 8.10821643286573  C 9.94272623138602 8.22177688710758  10 8.35237140948567  10 8.5  C 10 8.64762859051433  9.94272623138602 8.77822311289242  9.82817869415808 8.89178356713427  L 1.82130584192439 16.8296593186373  C 1.70675830469645 16.9432197728791  1.5750286368843 17  1.42611683848799 17  C 1.27720504009164 17  1.14547537227949 16.9432197728791  1.03092783505156 16.8296593186373  L 0.171821305841917 15.9779559118236  C 0.0572737686139817 15.8643954575818  0 15.7338009352038  0 15.5861723446894  C 0 15.438543754175  0.0572737686139817 15.3079492317969  0.171821305841917 15.1943887775551  L 6.92439862542955 8.5  L 0.171821305841917 1.8056112224449  C 0.0572737686139817 1.6920507682031  0 1.56145624582501  0 1.41382765531063  C 0 1.26619906479624  0.0572737686139817 1.13560454241815  0.171821305841917 1.02204408817636  L 1.03092783505156 0.170340681362745  C 1.14547537227949 0.0567802271208961  1.27720504009164 0  1.42611683848799 0  C 1.5750286368843 0  1.70675830469645 0.0567802271208961  1.82130584192439 0.170340681362745  L 9.82817869415808 8.10821643286573  Z " fill-rule="nonzero" fill="#999999" stroke="none" transform="matrix(1 0 0 1 646 99 )" />
  </g>
</svg>