<?xml version="1.0" encoding="utf-8"?>
<svg version="1.1" xmlns:xlink="http://www.w3.org/1999/xlink" width="363px" height="184px" xmlns="http://www.w3.org/2000/svg">
  <g transform="matrix(1 0 0 1 -1053 -504 )">
    <path d="M 1054 506  A 1 1 0 0 1 1055 505 L 1414 505  A 1 1 0 0 1 1415 506 L 1415 686  A 1 1 0 0 1 1414 687 L 1055 687  A 1 1 0 0 1 1054 686 L 1054 506  Z " fill-rule="nonzero" fill="#ffffff" stroke="none" fill-opacity="0" />
    <path d="M 1053.5 506  A 1.5 1.5 0 0 1 1055 504.5 L 1414 504.5  A 1.5 1.5 0 0 1 1415.5 506 L 1415.5 686  A 1.5 1.5 0 0 1 1414 687.5 L 1055 687.5  A 1.5 1.5 0 0 1 1053.5 686 L 1053.5 506  Z " stroke-width="1" stroke-dasharray="9,4" stroke="#e9e9e9" fill="none" stroke-dashoffset="0.5" />
  </g>
</svg>