<?xml version="1.0" encoding="utf-8"?>
<svg version="1.1" xmlns:xlink="http://www.w3.org/1999/xlink" width="363px" height="184px" xmlns="http://www.w3.org/2000/svg">
  <g transform="matrix(1 0 0 1 -1053 -504 )">
    <path d="M 1054 508  A 3 3 0 0 1 1057 505 L 1412 505  A 3 3 0 0 1 1415 508 L 1415 684  A 3 3 0 0 1 1412 687 L 1057 687  A 3 3 0 0 1 1054 684 L 1054 508  Z " fill-rule="nonzero" fill="#ffffff" stroke="none" fill-opacity="0" />
    <path d="M 1053.5 508  A 3.5 3.5 0 0 1 1057 504.5 L 1412 504.5  A 3.5 3.5 0 0 1 1415.5 508 L 1415.5 684  A 3.5 3.5 0 0 1 1412 687.5 L 1057 687.5  A 3.5 3.5 0 0 1 1053.5 684 L 1053.5 508  Z " stroke-width="1" stroke-dasharray="9,4" stroke="#d9d9d9" fill="none" stroke-dashoffset="0.5" />
  </g>
</svg>