<?xml version="1.0" encoding="utf-8"?>
<svg version="1.1" xmlns:xlink="http://www.w3.org/1999/xlink" width="48px" height="48px" xmlns="http://www.w3.org/2000/svg">
  <g transform="matrix(1 0 0 1 -327 -603 )">
    <path d="M 328 605  A 1 1 0 0 1 329 604 L 373 604  A 1 1 0 0 1 374 605 L 374 649  A 1 1 0 0 1 373 650 L 329 650  A 1 1 0 0 1 328 649 L 328 605  Z " fill-rule="nonzero" fill="#f2f2f2" stroke="none" />
    <path d="M 327.5 605  A 1.5 1.5 0 0 1 329 603.5 L 373 603.5  A 1.5 1.5 0 0 1 374.5 605 L 374.5 649  A 1.5 1.5 0 0 1 373 650.5 L 329 650.5  A 1.5 1.5 0 0 1 327.5 649 L 327.5 605  Z " stroke-width="1" stroke="#000000" fill="none" stroke-opacity="0.0470588235294118" />
  </g>
</svg>