<?xml version="1.0" encoding="utf-8"?>
<svg version="1.1" xmlns:xlink="http://www.w3.org/1999/xlink" width="6px" height="6px" xmlns="http://www.w3.org/2000/svg">
  <g transform="matrix(1 0 0 1 -58 -4 )">
    <path d="M 3.40234375 4.09765625  C 3.42578125 4.12109375  3.4375 4.15104166666667  3.4375 4.1875  L 3.4375 4.8125  C 3.4375 4.84895833333333  3.42578125 4.87890625  3.40234375 4.90234375  C 3.37890625 4.92578125  3.34895833333333 4.9375  3.3125 4.9375  L 2.6875 4.9375  C 2.65104166666667 4.9375  2.62109375 4.92578125  2.59765625 4.90234375  C 2.57421875 4.87890625  2.5625 4.84895833333333  2.5625 4.8125  L 2.5625 4.1875  C 2.5625 4.15104166666667  2.57421875 4.12109375  2.59765625 4.09765625  C 2.62109375 4.07421875  2.65104166666667 4.0625  2.6875 4.0625  L 3.3125 4.0625  C 3.34895833333333 4.0625  3.37890625 4.07421875  3.40234375 4.09765625  Z M 4.009765625 1.412109375  C 4.294921875 1.64518229166667  4.4375 1.92447916666667  4.4375 2.25  C 4.4375 2.38020833333333  4.41796875 2.49739583333333  4.37890625 2.6015625  C 4.33984375 2.70572916666667  4.28059895833333 2.79557291666667  4.201171875 2.87109375  C 4.12174479166667 2.94661458333333  4.05403645833333 3.00390625  3.998046875 3.04296875  C 3.94205729166667 3.08203125  3.86458333333333 3.12890625  3.765625 3.18359375  C 3.68229166666667 3.23046875  3.62174479166667 3.26692708333333  3.583984375 3.29296875  C 3.54622395833333 3.31901041666667  3.51236979166667 3.35026041666667  3.482421875 3.38671875  C 3.45247395833333 3.42317708333333  3.4375 3.4609375  3.4375 3.5  L 3.4375 3.625  C 3.4375 3.66145833333333  3.42578125 3.69140625  3.40234375 3.71484375  C 3.37890625 3.73828125  3.34895833333333 3.75  3.3125 3.75  L 2.6875 3.75  C 2.65104166666667 3.75  2.62109375 3.73828125  2.59765625 3.71484375  C 2.57421875 3.69140625  2.5625 3.66145833333333  2.5625 3.625  L 2.5625 3.359375  C 2.5625 3.26822916666667  2.576171875 3.18424479166667  2.603515625 3.107421875  C 2.630859375 3.03059895833333  2.662109375 2.96875  2.697265625 2.921875  C 2.732421875 2.875  2.783203125 2.82877604166667  2.849609375 2.783203125  C 2.916015625 2.73763020833333  2.96940104166667 2.70442708333333  3.009765625 2.68359375  C 3.05013020833333 2.66276041666667  3.10807291666667 2.63541666666667  3.18359375 2.6015625  C 3.32161458333333 2.53645833333333  3.41927083333333 2.48046875  3.4765625 2.43359375  C 3.53385416666667 2.38671875  3.5625 2.32291666666667  3.5625 2.2421875  C 3.5625 2.1328125  3.505859375 2.03971354166667  3.392578125 1.962890625  C 3.279296875 1.88606770833333  3.15494791666667 1.84765625  3.01953125 1.84765625  C 2.87369791666667 1.84765625  2.75 1.8828125  2.6484375 1.953125  C 2.57291666666667 2.00520833333333  2.46875 2.11328125  2.3359375 2.27734375  C 2.3125 2.30859375  2.27994791666667 2.32421875  2.23828125 2.32421875  C 2.20963541666667 2.32421875  2.18489583333333 2.31640625  2.1640625 2.30078125  L 1.7421875 1.98046875  C 1.71614583333333 1.96223958333333  1.70052083333333 1.93619791666667  1.6953125 1.90234375  C 1.69010416666667 1.86848958333333  1.69661458333333 1.83854166666667  1.71484375 1.8125  C 2.03255208333333 1.3125  2.48697916666667 1.0625  3.078125 1.0625  C 3.4140625 1.0625  3.724609375 1.17903645833333  4.009765625 1.412109375  Z M 3.970703125 0.69921875  C 3.662109375 0.56640625  3.33854166666667 0.5  3 0.5  C 2.66145833333333 0.5  2.337890625 0.56640625  2.029296875 0.69921875  C 1.720703125 0.83203125  1.455078125 1.009765625  1.232421875 1.232421875  C 1.009765625 1.455078125  0.83203125 1.720703125  0.69921875 2.029296875  C 0.56640625 2.337890625  0.5 2.66145833333333  0.5 3  C 0.5 3.33854166666667  0.56640625 3.662109375  0.69921875 3.970703125  C 0.83203125 4.279296875  1.009765625 4.544921875  1.232421875 4.767578125  C 1.455078125 4.990234375  1.720703125 5.16796875  2.029296875 5.30078125  C 2.337890625 5.43359375  2.66145833333333 5.5  3 5.5  C 3.33854166666667 5.5  3.662109375 5.43359375  3.970703125 5.30078125  C 4.279296875 5.16796875  4.544921875 4.990234375  4.767578125 4.767578125  C 4.990234375 4.544921875  5.16796875 4.279296875  5.30078125 3.970703125  C 5.43359375 3.662109375  5.5 3.33854166666667  5.5 3  C 5.5 2.66145833333333  5.43359375 2.337890625  5.30078125 2.029296875  C 5.16796875 1.720703125  4.990234375 1.455078125  4.767578125 1.232421875  C 4.544921875 1.009765625  4.279296875 0.83203125  3.970703125 0.69921875  Z M 5.59765625 1.494140625  C 5.86588541666667 1.95377604166667  6 2.45572916666667  6 3  C 6 3.54427083333333  5.86588541666667 4.04622395833333  5.59765625 4.505859375  C 5.32942708333333 4.96549479166667  4.96549479166667 5.32942708333333  4.505859375 5.59765625  C 4.04622395833333 5.86588541666667  3.54427083333333 6  3 6  C 2.45572916666667 6  1.95377604166667 5.86588541666667  1.494140625 5.59765625  C 1.03450520833333 5.32942708333333  0.670572916666667 4.96549479166667  0.40234375 4.505859375  C 0.134114583333333 4.04622395833333  0 3.54427083333333  0 3  C 0 2.45572916666667  0.134114583333333 1.95377604166667  0.40234375 1.494140625  C 0.670572916666667 1.03450520833333  1.03450520833333 0.670572916666666  1.494140625 0.40234375  C 1.95377604166667 0.134114583333333  2.45572916666667 0  3 0  C 3.54427083333333 0  4.04622395833333 0.134114583333333  4.505859375 0.40234375  C 4.96549479166667 0.670572916666666  5.32942708333333 1.03450520833333  5.59765625 1.494140625  Z " fill-rule="nonzero" fill="#000000" stroke="none" transform="matrix(1 0 0 1 58 4 )" />
  </g>
</svg>