<?xml version="1.0" encoding="utf-8"?>
<svg version="1.1" xmlns:xlink="http://www.w3.org/1999/xlink" width="311px" height="72px" xmlns="http://www.w3.org/2000/svg">
  <g>
    <path d="M 0.5 50.4705882352941  C 0.5 50.4705882352941  0.5 6  0.5 6  C 0.5 2.96243387593064  2.96243387593064 0.5  6 0.5  C 6 0.5  305 0.5  305 0.5  C 308.037566124069 0.5  310.5 2.96243387593064  310.5 6  C 310.5 6  310.5 50.4705882352941  310.5 50.4705882352941  C 310.5 53.5081543593635  308.037566124069 55.9705882352941  305 55.9705882352941  C 305 55.9705882352941  78.2501176439222 55.9705882352941  78.2501176439222 55.9705882352941  C 78.2501176439222 55.9705882352941  68.5457119845925 70.2311041847225  68.5457119845925 70.2311041847225  C 68.5457119845925 70.2311041847225  58.0339178599083 55.9705882352941  58.0339178599083 55.9705882352941  C 58.0339178599083 55.9705882352941  6 55.9705882352941  6 55.9705882352941  C 2.96243387593064 55.9705882352941  0.5 53.5081543593635  0.5 50.4705882352941  Z " fill-rule="nonzero" fill="#ffffff" stroke="none" />
    <path d="M 0 50.4705882352941  C 0 50.4705882352941  0 6  0 6  C 0 2.68629150101524  2.68629150101524 0  6 0  C 6 0  305 0  305 0  C 308.313708498985 0  311 2.68629150101524  311 6  C 311 6  311 50.4705882352941  311 50.4705882352941  C 311 53.7842967342789  308.313708498985 56.4705882352941  305 56.4705882352941  C 305 56.4705882352941  78.5146550048592 56.4705882352941  78.5146550048592 56.4705882352941  C 78.5146550048592 56.4705882352941  68.5620091324201 71.0958904109589  68.5620091324201 71.0958904109589  C 68.5620091324201 71.0958904109589  57.7813216715259 56.4705882352941  57.7813216715259 56.4705882352941  C 57.7813216715259 56.4705882352941  6 56.4705882352941  6 56.4705882352941  C 2.68629150101524 56.4705882352941  0 53.7842967342789  0 50.4705882352941  Z M 1 50.4705882352941  C 1 53.2320119844481  3.23857625084603 55.4705882352941  6 55.4705882352941  C 6 55.4705882352941  58.2865140482904 55.4705882352941  58.2865140482904 55.4705882352941  C 58.2865140482904 55.4705882352941  68.5294148367648 69.366317958486  68.5294148367648 69.366317958486  C 68.5294148367648 69.366317958486  77.9855802829852 55.4705882352941  77.9855802829852 55.4705882352941  C 77.9855802829852 55.4705882352941  305 55.4705882352941  305 55.4705882352941  C 307.761423749154 55.4705882352941  310 53.2320119844481  310 50.4705882352941  C 310 50.4705882352941  310 6  310 6  C 310 3.23857625084603  307.761423749154 1  305 1  C 305 1  6 1  6 1  C 3.23857625084603 1  1 3.23857625084603  1 6  C 1 6  1 50.4705882352941  1 50.4705882352941  Z " fill-rule="nonzero" fill="#d7d7d7" stroke="none" />
  </g>
</svg>