<?xml version="1.0" encoding="utf-8"?>
<svg version="1.1" xmlns:xlink="http://www.w3.org/1999/xlink" width="60px" height="46px" xmlns="http://www.w3.org/2000/svg">
  <g transform="matrix(1 0 0 1 -171 -203 )">
    <path d="M 59.4722420168067 32.1458823529412  C 59.6987697478991 24.4882352941177  54.6919260504201 17.9941176470588  48.1342386554621 17.4326470588235  L 48.1690890756303 17.4326470588235  C 46.69956302521 8.46941176470591  40.5078050420167 1.57617647058822  32.7535865546218 0.257058823529405  C 24.9993680672269 -1.05529411764701  17.3787428571427 3.49735294117647  13.7717243697479 11.6014705882353  C 5.70966050420168 12.2305882352941  -0.41820504201678 20.2873529411766  0.0232336134453135 29.6767647058823  C 0.46467226890752 39.0661764705883  7.30697142857139 46.3044117647058  15.374843697479 46  L 47.2804033613445 46  C 53.8555159663865 45.8782352941176  59.2399058823528 39.8035294117647  59.4722420168067 32.1458823529412  Z M 41.2512806722689 24.5423529411764  C 41.6694857142857 25.0429411764705  41.3674487394958 25.895294117647  40.7575663865546 25.895294117647  L 35.7565310924368 25.895294117647  C 35.3789848739495 25.895294117647  35.0769478991597 26.2538235294118  35.0769478991597 26.6867647058823  L 35.0769478991597 36.5361764705883  C 35.0769478991597 36.9758823529412  34.7691025210083 37.3276470588236  34.3973647058823 37.3276470588236  L 25.9403294117647 37.3276470588236  C 25.5627831932773 37.3276470588236  25.2607462184875 36.9691176470589  25.2607462184875 36.5361764705883  L 25.2607462184875 26.6867647058823  C 25.2607462184875 26.2470588235294  24.9529008403362 25.895294117647  24.58116302521 25.895294117647  L 19.5104268907562 25.895294117647  C 18.9005445378151 25.895294117647  18.5985075630251 25.0429411764705  19.0283294117646 24.5423529411764  L 29.6577075630252 12.1629411764706  C 29.9248941176471 11.8517647058824  30.3547159663865 11.8517647058824  30.6219025210083 12.1629411764706  L 41.2512806722689 24.5423529411764  Z " fill-rule="nonzero" fill="#dcdee3" stroke="none" transform="matrix(1 0 0 1 171 203 )" />
  </g>
</svg>