<?xml version="1.0" encoding="utf-8"?>
<svg version="1.1" xmlns:xlink="http://www.w3.org/1999/xlink" width="32px" height="32px" xmlns="http://www.w3.org/2000/svg">
  <g transform="matrix(1 0 0 1 -1058 -138 )">
    <path d="M 1074 138  C 1082.96 138  1090 145.04  1090 154  C 1090 162.96  1082.96 170  1074 170  C 1065.04 170  1058 162.96  1058 154  C 1058 145.04  1065.04 138  1074 138  Z " fill-rule="nonzero" fill="#ffffff" stroke="none" />
    <path d="M 1074 138.5  C 1082.68 138.5  1089.5 145.32  1089.5 154  C 1089.5 162.68  1082.68 169.5  1074 169.5  C 1065.32 169.5  1058.5 162.68  1058.5 154  C 1058.5 145.32  1065.32 138.5  1074 138.5  Z " stroke-width="1" stroke="#cccccc" fill="none" />
  </g>
</svg>