<?xml version="1.0" encoding="utf-8"?>
<svg version="1.1" xmlns:xlink="http://www.w3.org/1999/xlink" width="100px" height="60px" xmlns="http://www.w3.org/2000/svg">
  <defs>
    <filter x="961px" y="716px" width="100px" height="60px" filterUnits="userSpaceOnUse" id="filter73">
      <feOffset dx="0" dy="2" in="SourceAlpha" result="shadowOffsetInner" />
      <feGaussianBlur stdDeviation="5" in="shadowOffsetInner" result="shadowGaussian" />
      <feComposite in2="shadowGaussian" operator="atop" in="SourceAlpha" result="shadowComposite" />
      <feColorMatrix type="matrix" values="0 0 0 0 0.184313725490196  0 0 0 0 0.470588235294118  0 0 0 0 1  0 0 0 0.627450980392157 0  " in="shadowComposite" />
    </filter>
    <g id="widget74">
      <path d="M 971.5 727  A 2.5 2.5 0 0 1 974 724.5 L 1048 724.5  A 2.5 2.5 0 0 1 1050.5 727 L 1050.5 761  A 2.5 2.5 0 0 1 1048 763.5 L 974 763.5  A 2.5 2.5 0 0 1 971.5 761 L 971.5 727  Z " fill-rule="nonzero" fill="#0066ff" stroke="none" />
      <path d="M 971.5 727  A 2.5 2.5 0 0 1 974 724.5 L 1048 724.5  A 2.5 2.5 0 0 1 1050.5 727 L 1050.5 761  A 2.5 2.5 0 0 1 1048 763.5 L 974 763.5  A 2.5 2.5 0 0 1 971.5 761 L 971.5 727  Z " stroke-width="1" stroke="#2f78ff" fill="none" />
    </g>
  </defs>
  <g transform="matrix(1 0 0 1 -961 -716 )">
    <use xlink:href="#widget74" filter="url(#filter73)" />
    <use xlink:href="#widget74" />
  </g>
</svg>