<?xml version="1.0" encoding="utf-8"?>
<svg version="1.1" xmlns:xlink="http://www.w3.org/1999/xlink" width="75px" height="46px" xmlns="http://www.w3.org/2000/svg">
  <g transform="matrix(1 0 0 1 -145 -123 )">
    <path d="M 74.3403025210083 32.1458823529412  C 74.6234621848738 24.4882352941177  68.3649075630252 17.9941176470588  60.1677983193277 17.4326470588235  L 60.2113613445378 17.4326470588235  C 58.3744537815125 8.46941176470591  50.6347563025209 1.57617647058824  40.9419831932773 0.25705882352942  C 31.2492100840336 -1.05529411764704  21.7234285714284 3.49735294117647  17.2146554621849 11.6014705882353  C 7.1370756302521 12.2305882352941  -0.522756302521032 20.2873529411765  0.0290420168066987 29.6767647058823  C 0.580840336134457 39.0661764705882  9.13371428571423 46.3044117647058  19.2185546218488 46  L 59.1005042016806 46  C 67.3193949579831 45.8782352941177  74.049882352941 39.8035294117647  74.3403025210083 32.1458823529412  Z M 51.5641008403361 24.5423529411765  C 52.0868571428571 25.0429411764706  51.7093109243697 25.895294117647  50.9469579831933 25.895294117647  L 44.6956638655461 25.895294117647  C 44.2237310924369 25.895294117647  43.8461848739495 26.2538235294118  43.8461848739495 26.6867647058824  L 43.8461848739495 36.5361764705883  C 43.8461848739495 36.9758823529412  43.4613781512604 37.3276470588236  42.9967058823529 37  L 32.4254117647059 37  C 31.9534789915965 37.3276470588236  31.5759327731093 36.9691176470589  31.5759327731093 36.5361764705883  L 31.5759327731093 26.6867647058824  C 31.5759327731093 26.2470588235294  31.1911260504202 25.895294117647  30.7264537815125 25.895294117647  L 24.3880336134453 25.895294117647  C 23.6256806722688 25.895294117647  23.2481344537814 25.0429411764706  23.7854117647058 24.5423529411765  L 37.0721344537815 12.1629411764706  C 37.4061176470588 11.8517647058824  37.9433949579831 11.8517647058824  38.2773781512604 12.1629411764706  L 51.5641008403361 24.5423529411765  Z " fill-rule="nonzero" fill="#dcdee3" stroke="none" transform="matrix(1 0 0 1 145 123 )" />
  </g>
</svg>