<?xml version="1.0" encoding="utf-8"?>
<svg version="1.1" xmlns:xlink="http://www.w3.org/1999/xlink" width="19px" height="18px" xmlns="http://www.w3.org/2000/svg">
  <g transform="matrix(1 0 0 1 -330 -11 )">
    <path d="M 19 17.1088080481488  L 18.921240546875 17.1088080481488  C 18.921240546875 17.2589280061141  18.8522195214844 17.4086178158967  18.7131093701172 17.5227817191746  C 18.5740466955567 17.6369260763417  18.3922849768066 17.6942328655741  18.2105707348634 17.6942328655741  L 0.788883363037144 17.6942328846807  C 0.607145371093793 17.6942328846807  0.425431129150411 17.6369260954484  0.28684315307612 17.5227817382813  C 0.147756751709039 17.4086178350034  0.0787119763183455 17.2589280252208  0 17.1088080672554  L 0 2.92382113196331  C 0.0787119763183455 2.77370117399795  0.147756751709039 2.62401136421536  0.28684315307612 2.50984746093749  C 0.425431129150411 2.39568355765965  0.607145371093793 2.33839631453804  0.788883363037144 2.33839631453804  L 2.97719191894532 2.33839631453804  L 2.97719191894532 2.92882644573712  C 2.97719191894532 3.90771493079143  3.95079672851557 4.70095755137569  5.15130699707038 4.70095755137569  C 6.35231571411134 4.70095755137569  7.32539834838872 3.90771493079143  7.32539834838872 2.92882644573712  L 7.32539834838872 2.33839631453804  L 11.6741032263184 2.33839631453804  L 11.6741032263184 2.92882644573712  C 11.6741032263184 3.90771493079143  12.6471858837891 4.70095755137569  13.8482183044434 4.70095755137569  C 15.0487048461914 4.70095755137569  16.0217874804688 3.90771493079143  16.0217874804688 2.92882644573712  L 16.0217874804688 2.33839631453804  L 18.2106181884766 2.33839631453804  C 18.3923324304199 2.33839631453804  18.5740704223633 2.39568355765965  18.7131568237305 2.50984746093749  C 18.8522432250977 2.62399181810463  18.9212880004883 2.77370117399795  19 2.92382113196331  L 19 17.1088080481488  Z M 17.4720361889648 6.47267805494226  L 1.52794008422859 6.47267805494226  L 1.52794008422859 16.5129424932065  L 17.4720124621582 16.5129424932065  L 17.4720124621582 6.47267805494226  Z M 5.1512832470703 7.65394888119906  L 5.1512832470703 9.42566940387229  L 2.97716816894535 9.42566940387229  L 2.97716816894535 7.65394888119906  L 5.1512832470703 7.65394888119906  Z M 5.1512832470703 10.6069402492357  L 5.1512832470703 12.3786607528023  L 2.97716816894535 12.3786607528023  L 2.97716816894535 10.6069402492357  L 5.1512832470703 10.6069402492357  Z M 5.1512832470703 13.5599315790591  L 5.1512832470703 15.3320626846977  L 2.97716816894535 15.3320626846977  L 2.97716816894535 13.5599315790591  L 5.1512832470703 13.5599315790591  Z M 8.77512488159175 7.65394888119906  L 8.77512488159175 9.42566940387229  L 6.60051135498054 9.42566940387229  L 6.60051135498054 7.65394888119906  L 8.77512488159175 7.65394888119906  Z M 8.77512488159175 10.6069402492357  L 8.77512488159175 12.3786607528023  L 6.60051135498054 12.3786607528023  L 6.60051135498054 10.6069402492357  L 8.77512488159175 10.6069402492357  Z M 8.77512488159175 13.5599315790591  L 8.77512488159175 15.3320626846977  L 6.60051135498054 15.3320626846977  L 6.60051135498054 13.5599315790591  L 8.77512488159175 13.5599315790591  Z M 12.3984442944336 7.65394888119906  L 12.398444317627 9.42566940387229  L 10.2243292395019 9.42566940387229  L 10.2243292163085 7.65394888119906  L 12.3984442944336 7.65394888119906  Z M 12.398444317627 10.6069402492357  L 12.398444317627 12.3786607528023  L 10.2243292395019 12.3786607528023  L 10.2243292395019 10.6069402492357  L 12.398444317627 10.6069402492357  Z M 12.398444317627 13.5599315790591  L 12.398444317627 15.3320626846977  L 10.2243292395019 15.3320626846977  L 10.2243292395019 13.5599315790591  L 12.398444317627 13.5599315790591  Z M 16.0217637536621 7.65394888119906  L 16.0217637536621 9.42566940387229  L 13.8481945776367 9.42566940387229  L 13.8481945776367 7.65394888119906  L 16.0217637536621 7.65394888119906  Z M 16.0217637536621 10.6069402492357  L 16.0217637536621 12.3786607528023  L 13.8481945776367 12.3786607528023  L 13.8481945776367 10.6069402492357  L 16.0217637536621 10.6069402492357  Z M 16.0217637536621 13.5599315790591  L 16.0217637536621 15.3320626846977  L 13.8481945776367 15.3320626846977  L 13.8481945776367 13.5599315790591  L 16.0217637536621 13.5599315790591  Z M 15.2522314685059 2.94765496773098  C 15.2522314453125 3.58950675101903  14.6131697851563 4.11011681810464  13.8253378930664 4.11011681810464  C 13.0375297277832 4.11011681810464  12.398444317627 3.58952629712974  12.398444317627 2.94765496773098  L 12.398444317627 1.72958733653192  C 12.398444317627 1.08730540506116  13.0375297277832 0.566695337975545  13.8253378930664 0.566695337975545  C 14.6131460583496 0.566695337975545  15.2522314685059 1.08728585895042  15.2522314685059 1.72958733653192  L 15.2522314685059 2.94765496773098  Z M 6.55584231323235 2.94765496773098  C 6.55584231323235 3.58950675101903  5.91675690307613 4.11011681810464  5.12894873779305 4.11011681810464  C 4.34114057250974 4.11011681810464  3.70205516235353 3.58952629712974  3.70205516235353 2.94765496773098  L 3.70205516235353 1.72958733653192  C 3.70205516235353 1.08730540506116  4.34114057250974 0.566695337975545  5.12894873779305 0.566695337975545  C 5.91675690307613 0.566695337975545  6.55584231323235 1.08728585895042  6.55584231323235 1.72958733653192  L 6.55584231323235 2.94765496773098  Z " fill-rule="nonzero" fill="#dcdee3" stroke="none" transform="matrix(1 0 0 1 330 11 )" />
  </g>
</svg>