<?xml version="1.0" encoding="utf-8"?>
<svg version="1.1" xmlns:xlink="http://www.w3.org/1999/xlink" width="3px" height="6px" xmlns="http://www.w3.org/2000/svg">
  <g transform="matrix(1 0 0 1 -242 -53 )">
    <path d="M 2.90104166666667 2.736328125  C 2.96701388888889 2.810546875  3 2.8984375  3 3  C 3 3.1015625  2.96701388888889 3.189453125  2.90104166666667 3.263671875  L 0.567708333333333 5.888671875  C 0.501736111111111 5.962890625  0.423611111111111 6  0.333333333333333 6  C 0.243055555555556 6  0.164930555555556 5.962890625  0.0989583333333333 5.888671875  C 0.0329861111111111 5.814453125  0 5.7265625  0 5.625  L 0 0.375  C 0 0.273437499999999  0.0329861111111111 0.185546874999999  0.0989583333333333 0.111328125  C 0.164930555555556 0.0371093749999996  0.243055555555556 0  0.333333333333333 0  C 0.423611111111111 0  0.501736111111111 0.0371093749999996  0.567708333333333 0.111328125  L 2.90104166666667 2.736328125  Z " fill-rule="nonzero" fill="#333333" stroke="none" transform="matrix(1 0 0 1 242 53 )" />
  </g>
</svg>