<?xml version="1.0" encoding="utf-8"?>
<svg version="1.1" xmlns:xlink="http://www.w3.org/1999/xlink" width="3px" height="5px" xmlns="http://www.w3.org/2000/svg">
  <g transform="matrix(1 0 0 1 -16 -53 )">
    <path d="M 2.90104166666667 0.0927734375  C 2.96701388888889 0.154622395833333  3 0.227864583333333  3 0.3125  L 3 4.6875  C 3 4.77213541666667  2.96701388888889 4.84537760416667  2.90104166666667 4.9072265625  C 2.83506944444444 4.96907552083333  2.75694444444444 5  2.66666666666667 5  C 2.57638888888889 5  2.49826388888889 4.96907552083333  2.43229166666667 4.9072265625  L 0.0989583333333333 2.7197265625  C 0.0329861111111112 2.65787760416667  0 2.58463541666667  0 2.5  C 0 2.41536458333333  0.0329861111111112 2.34212239583333  0.0989583333333333 2.2802734375  L 2.43229166666667 0.0927734375  C 2.49826388888889 0.0309244791666663  2.57638888888889 0  2.66666666666667 0  C 2.75694444444444 0  2.83506944444444 0.0309244791666663  2.90104166666667 0.0927734375  Z " fill-rule="nonzero" fill="#333333" stroke="none" transform="matrix(1 0 0 1 16 53 )" />
  </g>
</svg>