<?xml version="1.0" encoding="utf-8"?>
<svg version="1.1" xmlns:xlink="http://www.w3.org/1999/xlink" width="8px" height="6px" xmlns="http://www.w3.org/2000/svg">
  <defs>
    <mask fill="white" id="clip37">
      <path d="M 7.33168618269235 0.752617741071447  C 7.45168660576917 0.584138075892781  7.45077688461544 0.31286117410724  7.33014793269228 0.146132437499944  C 7.20922125961545 -0.020158580357247  7.01475607692311 -0.0193061517856563  6.89506993269231 0.148712732142769  L 3.74277237500007 4.57970702678563  L 0.54646087499998 0.16758116517849  C 0.425534201923142 0.000875464285627459  0.231069019230745 0.00214257589294675  0.111068605769219 0.170161459821372  C -0.00861753846157853 0.338595040178689  -0.00770781730773251 0.609871941964229  0.112921125000071 0.776600691964347  L 3.51014854807693 5.46560179017848  C 3.51537530769235 5.47288191964282  3.52214031730762 5.47460979910716  3.52738361538457 5.48145219642856  C 3.52860760576925 5.48315704017858  3.52892186538463 5.48529960267848  3.53014585576921 5.48702748214276  C 3.59013778846156 5.56973525892846  3.66860532692306 5.61131953124999  3.74675859615388 5.61131953124999  C 3.82583812500008 5.61131953124999  3.90521537500001 5.56888284374986  3.9652238557693 5.48447022321437  L 7.33168618269235 0.752617741071447  Z " fill-rule="evenodd" />
    </mask>
  </defs>
  <g transform="matrix(1 0 0 1 -120 -67 )">
    <path d="M 7.33168618269235 0.752617741071447  C 7.45168660576917 0.584138075892781  7.45077688461544 0.31286117410724  7.33014793269228 0.146132437499944  C 7.20922125961545 -0.020158580357247  7.01475607692311 -0.0193061517856563  6.89506993269231 0.148712732142769  L 3.74277237500007 4.57970702678563  L 0.54646087499998 0.16758116517849  C 0.425534201923142 0.000875464285627459  0.231069019230745 0.00214257589294675  0.111068605769219 0.170161459821372  C -0.00861753846157853 0.338595040178689  -0.00770781730773251 0.609871941964229  0.112921125000071 0.776600691964347  L 3.51014854807693 5.46560179017848  C 3.51537530769235 5.47288191964282  3.52214031730762 5.47460979910716  3.52738361538457 5.48145219642856  C 3.52860760576925 5.48315704017858  3.52892186538463 5.48529960267848  3.53014585576921 5.48702748214276  C 3.59013778846156 5.56973525892846  3.66860532692306 5.61131953124999  3.74675859615388 5.61131953124999  C 3.82583812500008 5.61131953124999  3.90521537500001 5.56888284374986  3.9652238557693 5.48447022321437  L 7.33168618269235 0.752617741071447  Z " fill-rule="nonzero" fill="#333333" stroke="none" transform="matrix(1 0 0 1 120 67 )" />
    <path d="M 7.33168618269235 0.752617741071447  C 7.45168660576917 0.584138075892781  7.45077688461544 0.31286117410724  7.33014793269228 0.146132437499944  C 7.20922125961545 -0.020158580357247  7.01475607692311 -0.0193061517856563  6.89506993269231 0.148712732142769  L 3.74277237500007 4.57970702678563  L 0.54646087499998 0.16758116517849  C 0.425534201923142 0.000875464285627459  0.231069019230745 0.00214257589294675  0.111068605769219 0.170161459821372  C -0.00861753846157853 0.338595040178689  -0.00770781730773251 0.609871941964229  0.112921125000071 0.776600691964347  L 3.51014854807693 5.46560179017848  C 3.51537530769235 5.47288191964282  3.52214031730762 5.47460979910716  3.52738361538457 5.48145219642856  C 3.52860760576925 5.48315704017858  3.52892186538463 5.48529960267848  3.53014585576921 5.48702748214276  C 3.59013778846156 5.56973525892846  3.66860532692306 5.61131953124999  3.74675859615388 5.61131953124999  C 3.82583812500008 5.61131953124999  3.90521537500001 5.56888284374986  3.9652238557693 5.48447022321437  L 7.33168618269235 0.752617741071447  Z " stroke-width="2" stroke="#797979" fill="none" transform="matrix(1 0 0 1 120 67 )" mask="url(#clip37)" />
  </g>
</svg>