<?xml version="1.0" encoding="utf-8"?>
<svg version="1.1" xmlns:xlink="http://www.w3.org/1999/xlink" width="12px" height="7px" xmlns="http://www.w3.org/2000/svg">
  <defs>
    <mask fill="white" id="clip60">
      <path d="M 10.9975292740385 0.878054031250002  C 11.1775299086538 0.681494421874987  11.1761653269231 0.36500470312501  10.9952218990385 0.17048784375001  C 10.8138318894231 -0.0235183437499984  10.5221341153846 -0.0225238437500082  10.3426048990384 0.173498187500002  L 5.61415856250005 5.34299153124999  L 0.819691312500026 0.19551135937499  C 0.638301302884656 0.00102137499999344  0.346603528846117 0.00249967187500033  0.166602908653886 0.19852170312501  C -0.0129263076922825 0.395027546874985  -0.0115617259615419 0.711517265624991  0.169381687500049 0.906034140624996  L 5.26522282211533 6.37653542187499  C 5.27306296153847 6.38502890625  5.28321047596148 6.38704476562501  5.2910754230769 6.39502756249999  C 5.29291140865382 6.39701654687499  5.29338279807689 6.39951620312499  5.29521878365381 6.4015320625  C 5.38520668269234 6.49802446875  5.50290799038464 6.54653945312501  5.62013789423077 6.54653945312501  C 5.73875718750003 6.54653945312501  5.85782306249996 6.49702998437499  5.94783578365389 6.39854859375001  L 10.9975292740385 0.878054031250002  Z " fill-rule="evenodd" />
    </mask>
  </defs>
  <g transform="matrix(1 0 0 1 -198 -17 )">
    <path d="M 10.9975292740385 0.878054031250002  C 11.1775299086538 0.681494421874987  11.1761653269231 0.36500470312501  10.9952218990385 0.17048784375001  C 10.8138318894231 -0.0235183437499984  10.5221341153846 -0.0225238437500082  10.3426048990384 0.173498187500002  L 5.61415856250005 5.34299153124999  L 0.819691312500026 0.19551135937499  C 0.638301302884656 0.00102137499999344  0.346603528846117 0.00249967187500033  0.166602908653886 0.19852170312501  C -0.0129263076922825 0.395027546874985  -0.0115617259615419 0.711517265624991  0.169381687500049 0.906034140624996  L 5.26522282211533 6.37653542187499  C 5.27306296153847 6.38502890625  5.28321047596148 6.38704476562501  5.2910754230769 6.39502756249999  C 5.29291140865382 6.39701654687499  5.29338279807689 6.39951620312499  5.29521878365381 6.4015320625  C 5.38520668269234 6.49802446875  5.50290799038464 6.54653945312501  5.62013789423077 6.54653945312501  C 5.73875718750003 6.54653945312501  5.85782306249996 6.49702998437499  5.94783578365389 6.39854859375001  L 10.9975292740385 0.878054031250002  Z " fill-rule="nonzero" fill="#666666" stroke="none" transform="matrix(1 0 0 1 198 17 )" />
    <path d="M 10.9975292740385 0.878054031250002  C 11.1775299086538 0.681494421874987  11.1761653269231 0.36500470312501  10.9952218990385 0.17048784375001  C 10.8138318894231 -0.0235183437499984  10.5221341153846 -0.0225238437500082  10.3426048990384 0.173498187500002  L 5.61415856250005 5.34299153124999  L 0.819691312500026 0.19551135937499  C 0.638301302884656 0.00102137499999344  0.346603528846117 0.00249967187500033  0.166602908653886 0.19852170312501  C -0.0129263076922825 0.395027546874985  -0.0115617259615419 0.711517265624991  0.169381687500049 0.906034140624996  L 5.26522282211533 6.37653542187499  C 5.27306296153847 6.38502890625  5.28321047596148 6.38704476562501  5.2910754230769 6.39502756249999  C 5.29291140865382 6.39701654687499  5.29338279807689 6.39951620312499  5.29521878365381 6.4015320625  C 5.38520668269234 6.49802446875  5.50290799038464 6.54653945312501  5.62013789423077 6.54653945312501  C 5.73875718750003 6.54653945312501  5.85782306249996 6.49702998437499  5.94783578365389 6.39854859375001  L 10.9975292740385 0.878054031250002  Z " stroke-width="2" stroke="#797979" fill="none" transform="matrix(1 0 0 1 198 17 )" mask="url(#clip60)" />
  </g>
</svg>