<?xml version="1.0" encoding="utf-8"?>
<svg version="1.1" xmlns:xlink="http://www.w3.org/1999/xlink" width="17px" height="20px" xmlns="http://www.w3.org/2000/svg">
  <g transform="matrix(1 0 0 1 -755 -35 )">
    <path d="M 16.46875 10  C 16.46875 4.83036794084819  12.894187250279 0.625  8.5 0.625  C 4.10636351841519 0.625  0.53125 4.83036794084819  0.53125 10  C 0.53125 15.1696320591518  4.10581274972096 19.375  8.5 19.375  C 12.8936364815848 19.375  16.46875 15.1696320591518  16.46875 10  Z M 9.30655921909878 10.0026638183594  L 11.7506845567104 12.8875007114955  C 11.972671928711 13.1499942243304  11.9720905657087 13.5732164411272  11.7495524428013 13.8343780552455  C 11.6385740628488 13.9642929129464  11.4934178742327 14.029916280692  11.3477109347098 14.029916280692  C 11.2014226321847 14.029916280692  11.0557156926618 13.9642928920201  10.9447067006139 13.8330461356027  L 8.49715440917967 10.9448614676339  L 6.04164667271206 13.8029162667411  C 5.9306682927595 13.9314992047991  5.78606287283763 13.9964386369978  5.64148804722375 13.9964386369978  C 5.49464897600445 13.9964386369978  5.34836069126675 13.930131312779  5.23680093052458 13.7975526367188  C 5.01594567243305 13.5343751674107  5.01765914934431 13.1111529506138  5.24136001604355 12.8506752929687  L 7.69402214390345 9.9966522251674  L 5.25044757498605 7.11249926757813  C 5.0284602029855 6.85065369698663  5.02904156598773 6.42678353794645  5.25157968889508 6.1656219238281  C 5.47414842389786 5.90377635323659  5.83385669607978 5.90514426618302  6.05642543108261 6.16695382254466  L 8.50339635951451 9.05445453404019  L 10.9589040959821 6.19643572823662  C 11.1820235818917 5.93595807059154  11.5428945800781 5.93862186802454  11.7637498381697 6.20179935825894  C 11.985155847168 6.46497682756694  11.9828916193499 6.88884698660712  11.7591907526507 7.14867670200891  L 9.30655921909878 10.0026638183594  Z " fill-rule="nonzero" fill="#dcdee3" stroke="none" transform="matrix(1 0 0 1 755 35 )" />
  </g>
</svg>