<?xml version="1.0" encoding="utf-8"?>
<svg version="1.1" xmlns:xlink="http://www.w3.org/1999/xlink" width="20px" height="20px" xmlns="http://www.w3.org/2000/svg">
  <g transform="matrix(1 0 0 1 -379 -467 )">
    <path d="M 19.375 10  C 19.375 4.83036794084819  15.1696320591518 0.625  10 0.625  C 4.83101590401787 0.625  0.625 4.83036794084819  0.625 10  C 0.625 15.1696320591518  4.83036794084819 19.375  10 19.375  C 15.1689840959821 19.375  19.375 15.1696320591518  19.375 10  Z M 10.9488931989397 10.0026638183594  L 13.8243347726004 12.8875007114955  C 14.0854963867188 13.1499942243304  14.0848124302455 13.5732164411272  13.8230028738839 13.8343780552455  C 13.6924400739397 13.9642929129464  13.5216680873326 14.029916280692  13.3502481584821 14.029916280692  C 13.1781442731585 14.029916280692  13.0067243443081 13.9642928920201  12.8761255301339 13.8330461356027  L 9.99665224609373 10.9448614676339  L 7.10781961495536 13.8029162667411  C 6.97725681501117 13.9314992047991  6.80713279157368 13.9964386369978  6.63704476143971 13.9964386369978  C 6.46429291294641 13.9964386369978  6.29218904854912 13.930131312779  6.16094227120539 13.7975526367188  C 5.90111255580359 13.5343751674107  5.9031284109933 13.1111529506138  6.1663059012277 12.8506752929687  L 9.05179075753347 9.9966522251674  L 6.17699714704241 7.11249926757813  C 5.91583553292412 6.85065369698663  5.91651948939733 6.42678353794645  6.17832904575891 6.1656219238281  C 6.44017461635042 5.90377635323659  6.86336081891739 5.90514426618302  7.12520638950895 6.16695382254466  L 10.0039957170759 9.05445453404019  L 12.8928283482143 6.19643572823662  C 13.1553218610491 5.93595807059154  13.5798759765625 5.93862186802454  13.8397056919643 6.20179935825894  C 14.1001833496094 6.46497682756694  14.0975195521763 6.88884698660712  13.834342061942 7.14867670200891  L 10.9488931989397 10.0026638183594  Z " fill-rule="nonzero" fill="#dcdee3" stroke="none" transform="matrix(1 0 0 1 379 467 )" />
  </g>
</svg>