<?xml version="1.0" encoding="utf-8"?>
<svg version="1.1" xmlns:xlink="http://www.w3.org/1999/xlink" width="75px" height="28px" xmlns="http://www.w3.org/2000/svg">
  <defs>
    <mask fill="white" id="clip32">
      <path d="M 75 24  L 75 4  C 75 1.76  72.9375 0  70.3125 0  L 0 0  L 0 28  L 70.3125 28  C 72.9375 28  75 26.24  75 24  Z " fill-rule="evenodd" />
    </mask>
  </defs>
  <g transform="matrix(1 0 0 1 -1381 -136 )">
    <path d="M 75 24  L 75 4  C 75 1.76  72.9375 0  70.3125 0  L 0 0  L 0 28  L 70.3125 28  C 72.9375 28  75 26.24  75 24  Z " fill-rule="nonzero" fill="#ffffff" stroke="none" transform="matrix(1 0 0 1 1381 136 )" />
    <path d="M 75 24  L 75 4  C 75 1.76  72.9375 0  70.3125 0  L 0 0  L 0 28  L 70.3125 28  C 72.9375 28  75 26.24  75 24  Z " stroke-width="2" stroke="#d9d9d9" fill="none" transform="matrix(1 0 0 1 1381 136 )" mask="url(#clip32)" />
  </g>
</svg>